<svg id="Capa_1" height="512" width="512" xmlns="http://www.w3.org/2000/svg"><path d="M337.034 420.796a15.12 15.12 0 002.484.207c7.2 0 13.555-5.2 14.778-12.537l15-90c1.362-8.171-4.158-15.9-12.33-17.262-8.172-1.366-15.9 4.158-17.262 12.33l-15 90c-1.362 8.172 4.158 15.901 12.33 17.262zm-178.33-12.33c1.223 7.337 7.577 12.537 14.778 12.537.819 0 1.649-.067 2.484-.207 8.172-1.362 13.692-9.09 12.33-17.262l-15-90c-1.362-8.172-9.089-13.691-17.262-12.33-8.172 1.362-13.692 9.09-12.33 17.262z"/><path d="M497 181h-52.791L328.713 36.63c-5.174-6.467-14.613-7.518-21.083-2.342-6.469 5.175-7.518 14.614-2.342 21.083L405.791 181H106.209L206.713 55.371c5.175-6.469 4.126-15.909-2.342-21.083-6.47-5.176-15.909-4.126-21.083 2.342L67.791 181H15c-8.284 0-15 6.716-15 15v60c0 8.284 6.716 15 15 15h18.686l56.892 199.121A14.998 14.998 0 00105 481h302a15 15 0 0014.423-10.879L478.314 271H497c8.284 0 15-6.716 15-15v-60c0-8.284-6.716-15-15-15zM395.686 451H116.314L64.886 271h382.229zM482 241H30v-30h452z"/><path d="M256 421c8.284 0 15-6.716 15-15v-90c0-8.284-6.716-15-15-15s-15 6.716-15 15v90c0 8.285 6.716 15 15 15z"/></svg>